<?xml version="1.0" encoding="UTF-8"?>
<svg width="512px" height="224px" viewBox="0 0 512 224" xmlns="http://www.w3.org/2000/svg" xmlns:xlink="http://www.w3.org/1999/xlink" version="1.1">
 <!-- Generated by Pixelmator Pro 1.6.1 -->
 <path id="パス" d="M174.49 29.19 C174.857 27.562 175.121 25.912 175.28 24.25 175.638 22.518 175.848 20.758 175.91 18.99 175.926 17.285 175.532 15.601 174.76 14.08 174.011 12.601 172.837 11.379 171.39 10.57 169.908 9.781 168.249 9.382 166.57 9.41 161.31 9.41 156.04 12.69 150.89 19.17 146 25.33 139 37.2 130 54.44 L118.59 76.44 C112.42 88.44 104.84 101.44 96.09 115.16 92.561 120.735 88.753 126.129 84.68 131.32 81.337 135.583 77.751 139.65 73.94 143.5 57 160.43 37.46 169.02 15.82 169.02 12.633 168.94 9.453 168.7 6.29 168.3 L5.12 168.17 0 180.32 2 180.64 C4.41 181.039 6.847 181.249 9.29 181.27 17.69 181.205 26.027 179.825 34 177.18 42.521 174.402 50.656 170.554 58.21 165.73 66.148 160.649 73.505 154.713 80.15 148.03 86.798 141.341 92.749 133.993 97.91 126.1 105.845 131.959 112.828 139.009 118.61 147 124.798 155.273 129.579 164.511 132.76 174.34 L133.11 175.44 143.3 175.44 154.83 121.67 163.46 121.67 164.96 114.4 156.35 114.4 Z M140.23 121.67 L133.31 154.2 C129.347 147.93 124.896 141.982 120 136.41 115.2 131.072 109.966 126.142 104.35 121.67 Z M160.23 24.94 C160.204 26.257 159.992 27.563 159.6 28.82 L159.6 29.07 C159.6 29.32 159.28 30.66 158.77 33.07 L141.77 114.36 105.91 114.36 C107.45 111.73 109.91 107.36 113.33 101.15 L125.05 79.82 C125.17 79.53 125.94 78.03 129.73 71.2 Q134.95 61.2 136.64 57.97 C144.18 43.77 149.54 34.26 152.58 29.7 156.32 24.09 158.43 23.49 159.16 23.49 159.89 23.49 160.26 23.48 160.26 24.94 Z" fill="#231815" fill-opacity="1" stroke="none"/>
 <path id="パス-1" d="M241.88 157.27 C235.1 164.64 232.17 165.74 231.02 165.74 230.43 165.74 229.65 165.56 228.87 164.17 228.038 162.471 227.65 160.589 227.74 158.7 227.922 155.052 228.516 151.435 229.51 147.92 L235.57 123.29 C236.37 120.594 236.837 117.81 236.96 115 237.1 111.695 235.944 108.466 233.74 106 231.557 103.69 228.487 102.426 225.31 102.53 218.81 102.53 212 106.43 205.09 114.1 199.525 120.558 194.704 127.623 190.72 135.16 L198.91 100.21 183.75 106.76 170.23 177.4 181.64 173.82 182.99 169.77 C185.452 161.885 188.349 154.144 191.67 146.58 194.415 140.702 197.66 135.071 201.37 129.75 211.11 115.47 217.26 112.48 220.7 112.48 221.627 112.41 222.542 112.724 223.23 113.35 223.883 114.118 224.2 115.116 224.11 116.12 223.961 118.876 223.627 121.619 223.11 124.33 L218.38 150.06 C217.579 153.932 217.117 157.867 217 161.82 216.876 165.506 217.881 169.141 219.88 172.24 221.88 175.24 224.5 176.75 227.55 176.75 229.79 176.75 232.18 175.66 234.65 173.51 238.331 170.031 241.781 166.317 244.98 162.39 L247.27 159.87 242.96 156.11 Z" fill="#231815" fill-opacity="1" stroke="none"/>
 <path id="パス-2" d="M322.85 157.25 C315.93 164.59 313.19 165.38 312.34 165.38 311.99 165.38 310.93 165.38 309.81 163.48 308.87 161.799 308.4 159.896 308.45 157.97 308.624 154.248 309.217 150.558 310.22 146.97 L322.41 99.49 307.41 105.73 306.7 108.16 C303.34 104.66 298.76 102.89 293.05 102.89 286.63 102.89 279.98 105.73 273.29 111.33 266.445 117.168 260.827 124.305 256.76 132.33 252.33 140.85 250.09 149.14 250.09 156.97 250.09 162.89 251.56 167.71 254.44 171.3 257.377 174.979 261.886 177.045 266.59 176.87 274.75 176.87 283.29 171.27 291.98 160.24 294.49 157.054 296.797 153.714 298.89 150.24 298.068 153.94 297.537 157.698 297.3 161.48 297.242 165.158 298.341 168.76 300.44 171.78 302.64 174.93 305.34 176.52 308.44 176.52 310.54 176.52 312.84 175.42 315.44 173.17 319.024 169.874 322.387 166.346 325.51 162.61 L327.78 159.93 324 156.07 Z M281.7 162.36 C277.97 165.57 274.39 167.2 271.07 167.2 268.884 167.295 266.814 166.216 265.64 164.37 264.25 162.3 263.54 159.37 263.54 155.54 263.739 150.984 264.594 146.481 266.08 142.17 267.671 136.962 269.802 131.934 272.44 127.17 275.137 122.171 278.715 117.699 283 113.97 286.65 110.97 290.11 109.41 293.28 109.41 295.804 109.366 298.27 110.173 300.28 111.7 302.263 113.225 303.735 115.318 304.5 117.7 L303.5 121.5 C301.83 128.04 300.29 133.22 298.94 136.88 297.507 140.722 295.648 144.391 293.4 147.82 289.54 154.1 285.6 159 281.7 162.36 Z" fill="#231815" fill-opacity="1" stroke="none"/>
 <path id="パス-3" d="M359.12 157.27 C352.35 164.64 349.41 165.74 348.27 165.74 347.77 165.74 347 165.57 346.16 164.15 345.312 162.506 344.912 160.668 345 158.82 345.099 155.128 345.612 151.458 346.53 147.88 L380.27 0 363.87 8 335.68 150 C334.793 153.884 334.255 157.84 334.07 161.82 334.02 165.432 335.066 168.974 337.07 171.98 339.19 175.14 341.77 176.75 344.75 176.75 346.99 176.75 349.37 175.66 351.85 173.51 355.53 170.033 358.977 166.319 362.17 162.39 L364.47 159.87 360.16 156.11 Z" fill="#231815" fill-opacity="1" stroke="none"/>
 <path id="パス-4" d="M426.07 109.98 C421.61 105.18 415.69 102.75 408.47 102.75 401.69 102.75 394.97 105.14 388.47 109.84 381.951 114.65 376.596 120.863 372.8 128.02 368.918 134.906 366.827 142.656 366.72 150.56 366.72 158.56 368.98 165.08 373.44 170.01 377.9 174.94 383.92 177.5 391.24 177.5 397.94 177.5 404.65 175.05 411.17 170.21 417.697 165.337 423.037 159.05 426.79 151.82 430.659 144.657 432.703 136.651 432.74 128.51 432.74 120.98 430.49 114.76 426.07 109.98 Z M380.67 154.2 C380.809 148.5 381.748 142.848 383.46 137.41 385.102 131.605 387.471 126.031 390.51 120.82 392.576 117.262 395.338 114.157 398.63 111.69 401.201 109.789 404.303 108.74 407.5 108.69 410.657 108.654 413.624 110.196 415.41 112.8 417.672 116.018 418.817 119.889 418.67 123.82 418.601 129.591 417.801 135.33 416.29 140.9 414.843 146.65 412.69 152.199 409.88 157.42 404.88 166.62 399.08 171.28 392.69 171.28 388.82 171.28 385.94 169.91 383.89 167.08 381.84 164.25 380.67 159.82 380.67 154.2 Z" fill="#231815" fill-opacity="1" stroke="none"/>
 <path id="パス-5" d="M496.47 105.72 L495.87 108.06 C492.154 104.782 487.344 103.016 482.39 103.11 475.89 103.11 469.16 105.99 462.39 111.67 455.525 117.523 449.887 124.677 445.8 132.72 441.42 141.16 439.19 149.41 439.19 157.24 439.19 162.93 440.72 167.69 443.73 171.4 446.661 175.139 451.191 177.268 455.94 177.14 465.82 177.14 475.6 169.7 485.06 154.99 L478.06 184.92 C475.84 194.52 473.69 201.2 471.65 204.81 470.004 207.786 467.586 210.263 464.65 211.98 456.59 216.98 448.9 215.5 440.83 207.8 L439.56 206.6 431.33 217.26 432.62 218.26 C437.281 221.696 442.94 223.508 448.73 223.42 455.196 223.444 461.553 221.761 467.16 218.54 473.018 215.127 477.97 210.356 481.6 204.63 483.743 201.331 485.523 197.811 486.91 194.13 488.931 188.35 490.601 182.452 491.91 176.47 L511.25 99.47 Z M461.27 167.72 C458.895 167.852 456.611 166.79 455.18 164.89 453.66 162.89 452.89 159.99 452.89 156.31 452.89 150.55 454.38 143.91 457.33 136.56 459.863 129.869 463.466 123.634 468 118.1 472.92 112.49 477.92 109.65 482.84 109.65 487.28 109.65 490.84 112.19 493.67 117.39 L492.48 122.28 C490.438 131.338 487.018 140.029 482.34 148.05 479.284 153.468 475.465 158.419 471 162.75 467.34 166.02 464.09 167.68 461.27 167.68 Z" fill="#231815" fill-opacity="1" stroke="none"/>
</svg>
