<svg xmlns="http://www.w3.org/2000/svg" width="794" height="1123" viewBox="0 0 794 1123">
	<g >
		<text x="50%" y="360" dominant-baseline="middle" text-anchor="middle" font-family="sans-serif" font-weight="bold" font-size="36" fill="#00448A">
	Asciidcotor
		</text>
		<text x="50%" y="420" dominant-baseline="middle" text-anchor="middle" font-family="sans-serif" font-weight="bold" font-size="36" fill="#00448A">
	サンプルファイル
		</text>

		<text x="50%" y="550" dominant-baseline="middle" text-anchor="middle" font-family="sans-serif" font-size="18" fill="#222222">
	{%revdate%}版
		</text>
	</g>
	<g >
		<path  id="パス" d="M0 0 794 0 794 180 0 180 Z" fill="#00448A" fill-opacity="1" stroke="none"/>
		<path transform="translate(0  600)" id="パス" d="M0 0 794 0 794 523 0 523 Z" fill="#00448A" fill-opacity="1" stroke="none"/>

	</g>
	<g transform="translate(307  220)">
 <path id="パス" d="M58.277 9.773 C58.4 9.228 58.488 8.676 58.541 8.119 58.66 7.54 58.73 6.95 58.751 6.358 58.757 5.787 58.625 5.224 58.367 4.714 58.117 4.219 57.725 3.81 57.242 3.539 56.747 3.275 56.193 3.141 55.632 3.151 53.875 3.151 52.115 4.249 50.395 6.419 48.762 8.481 46.424 12.455 43.418 18.228 L39.607 25.594 C37.547 29.612 35.015 33.964 32.093 38.558 30.914 40.425 29.642 42.231 28.282 43.969 27.165 45.396 25.968 46.758 24.695 48.047 19.037 53.715 12.511 56.592 5.284 56.592 4.219 56.565 3.157 56.484 2.101 56.35 L1.71 56.307 0 60.375 0.668 60.482 C1.473 60.616 2.287 60.686 3.103 60.693 5.908 60.671 8.693 60.209 11.355 59.324 14.201 58.394 16.918 57.105 19.441 55.49 22.092 53.789 24.55 51.801 26.769 49.564 28.989 47.324 30.977 44.864 32.7 42.221 35.351 44.183 37.683 46.543 39.614 49.219 41.681 51.989 43.277 55.082 44.34 58.373 L44.457 58.741 47.86 58.741 51.711 40.738 54.593 40.738 55.094 38.304 52.218 38.304 Z M46.835 40.738 L44.523 51.629 C43.2 49.53 41.713 47.539 40.078 45.673 38.475 43.886 36.727 42.235 34.851 40.738 Z M53.514 8.35 C53.506 8.791 53.435 9.229 53.304 9.65 L53.304 9.733 C53.304 9.817 53.197 10.266 53.027 11.073 L47.349 38.29 35.372 38.29 C35.887 37.41 36.708 35.946 37.85 33.867 L41.765 26.725 C41.805 26.628 42.062 26.126 43.328 23.839 Q45.071 20.491 45.636 19.41 C48.154 14.655 49.944 11.471 50.959 9.944 52.208 8.066 52.913 7.865 53.157 7.865 53.401 7.865 53.524 7.862 53.524 8.35 Z" fill="#231815" fill-opacity="1" stroke="none"/>
 <path id="パス-1" d="M80.784 52.657 C78.52 55.125 77.541 55.493 77.157 55.493 76.96 55.493 76.7 55.433 76.439 54.968 76.161 54.399 76.032 53.769 76.062 53.136 76.122 51.915 76.321 50.704 76.653 49.527 L78.677 41.28 C78.944 40.377 79.1 39.445 79.141 38.504 79.188 37.398 78.802 36.317 78.066 35.491 77.336 34.718 76.311 34.294 75.25 34.329 73.079 34.329 70.805 35.635 68.497 38.203 66.638 40.365 65.028 42.731 63.698 45.254 L66.433 33.552 61.37 35.746 56.854 59.397 60.665 58.199 61.116 56.843 C61.938 54.203 62.906 51.611 64.015 49.078 64.932 47.11 66.015 45.225 67.254 43.443 70.507 38.662 72.561 37.661 73.71 37.661 74.02 37.637 74.326 37.742 74.555 37.952 74.773 38.209 74.879 38.543 74.849 38.879 74.799 39.802 74.688 40.721 74.515 41.628 L72.936 50.243 C72.668 51.54 72.514 52.857 72.475 54.181 72.433 55.415 72.769 56.632 73.436 57.67 74.104 58.674 74.979 59.18 75.998 59.18 76.746 59.18 77.544 58.815 78.369 58.095 79.599 56.93 80.751 55.686 81.819 54.372 L82.584 53.528 81.145 52.269 Z" fill="#231815" fill-opacity="1" stroke="none"/>
 <path id="パス-2" d="M107.827 52.651 C105.516 55.108 104.601 55.373 104.317 55.373 104.2 55.373 103.846 55.373 103.472 54.737 103.158 54.174 103.001 53.537 103.017 52.892 103.076 51.646 103.274 50.41 103.609 49.209 L107.68 33.311 102.67 35.401 102.433 36.214 C101.311 35.042 99.781 34.45 97.874 34.45 95.73 34.45 93.509 35.401 91.275 37.276 88.988 39.23 87.112 41.62 85.754 44.307 84.274 47.16 83.526 49.935 83.526 52.557 83.526 54.539 84.017 56.153 84.979 57.355 85.96 58.587 87.466 59.278 89.037 59.22 91.762 59.22 94.614 57.345 97.517 53.652 98.355 52.585 99.126 51.467 99.825 50.304 99.55 51.542 99.373 52.801 99.294 54.067 99.274 55.298 99.641 56.504 100.342 57.516 101.077 58.57 101.979 59.103 103.014 59.103 103.716 59.103 104.484 58.734 105.352 57.981 106.549 56.877 107.672 55.696 108.715 54.445 L109.473 53.548 108.211 52.256 Z M94.083 54.362 C92.838 55.436 91.642 55.982 90.533 55.982 89.803 56.014 89.112 55.653 88.72 55.035 88.255 54.342 88.018 53.36 88.018 52.078 88.085 50.553 88.37 49.045 88.867 47.602 89.398 45.858 90.11 44.174 90.991 42.579 91.891 40.905 93.086 39.408 94.518 38.16 95.737 37.155 96.892 36.633 97.951 36.633 98.794 36.618 99.618 36.888 100.289 37.4 100.951 37.91 101.443 38.611 101.698 39.408 L101.364 40.681 C100.807 42.871 100.292 44.605 99.841 45.83 99.363 47.117 98.742 48.345 97.991 49.493 96.702 51.596 95.386 53.237 94.083 54.362 Z" fill="#231815" fill-opacity="1" stroke="none"/>
 <path id="パス-3" d="M119.94 52.657 C117.679 55.125 116.697 55.493 116.317 55.493 116.15 55.493 115.893 55.436 115.612 54.961 115.329 54.41 115.195 53.795 115.225 53.176 115.258 51.94 115.429 50.711 115.736 49.513 L127.004 0 121.527 2.679 112.112 50.223 C111.816 51.524 111.636 52.848 111.574 54.181 111.557 55.39 111.907 56.576 112.576 57.583 113.284 58.641 114.146 59.18 115.141 59.18 115.889 59.18 116.684 58.815 117.512 58.095 118.741 56.931 119.893 55.687 120.959 54.372 L121.727 53.528 120.288 52.269 Z" fill="#231815" fill-opacity="1" stroke="none"/>
 <path id="パス-4" d="M142.301 36.824 C140.811 35.217 138.834 34.403 136.423 34.403 134.158 34.403 131.914 35.203 129.743 36.777 127.566 38.387 125.777 40.468 124.509 42.864 123.213 45.169 122.514 47.764 122.479 50.411 122.479 53.089 123.234 55.272 124.723 56.923 126.213 58.574 128.223 59.431 130.668 59.431 132.906 59.431 135.147 58.61 137.324 56.99 139.504 55.358 141.288 53.253 142.541 50.833 143.833 48.434 144.516 45.754 144.528 43.028 144.528 40.507 143.777 38.424 142.301 36.824 Z M127.138 51.629 C127.184 49.721 127.498 47.829 128.07 46.008 128.618 44.064 129.409 42.198 130.424 40.453 131.114 39.262 132.037 38.222 133.136 37.396 133.995 36.76 135.031 36.408 136.099 36.392 137.153 36.38 138.144 36.896 138.74 37.768 139.496 38.845 139.878 40.141 139.829 41.458 139.806 43.39 139.539 45.311 139.034 47.176 138.551 49.102 137.832 50.959 136.894 52.708 135.224 55.788 133.286 57.348 131.152 57.348 129.86 57.348 128.898 56.89 128.213 55.942 127.529 54.994 127.138 53.511 127.138 51.629 Z" fill="#231815" fill-opacity="1" stroke="none"/>
 <path id="パス-5" d="M165.813 35.397 L165.613 36.181 C164.372 35.083 162.765 34.492 161.111 34.523 158.94 34.523 156.692 35.488 154.431 37.39 152.138 39.349 150.255 41.745 148.89 44.438 147.427 47.263 146.683 50.026 146.683 52.647 146.683 54.552 147.194 56.146 148.199 57.388 149.178 58.64 150.691 59.353 152.277 59.31 155.577 59.31 158.843 56.819 162.002 51.894 L159.665 61.915 C158.923 65.129 158.205 67.366 157.524 68.575 156.974 69.571 156.166 70.401 155.186 70.975 152.494 72.65 149.926 72.154 147.23 69.576 L146.806 69.174 144.057 72.743 144.488 73.078 C146.045 74.229 147.935 74.835 149.869 74.806 152.028 74.814 154.151 74.25 156.024 73.172 157.981 72.029 159.635 70.432 160.847 68.515 161.563 67.41 162.157 66.231 162.62 64.999 163.295 63.064 163.853 61.089 164.29 59.086 L170.75 33.305 Z M154.057 56.156 C153.264 56.2 152.501 55.845 152.023 55.209 151.515 54.539 151.258 53.568 151.258 52.336 151.258 50.407 151.756 48.184 152.741 45.723 153.587 43.483 154.79 41.395 156.305 39.542 157.948 37.664 159.618 36.713 161.261 36.713 162.744 36.713 163.933 37.564 164.878 39.305 L164.481 40.942 C163.799 43.975 162.656 46.885 161.094 49.57 160.073 51.384 158.798 53.042 157.307 54.492 156.084 55.587 154.999 56.143 154.057 56.143 Z" fill="#231815" fill-opacity="1" stroke="none"/>
	</g>
</svg>
